<svg width="202" height="151" viewBox="0 0 202 151" fill="none" xmlns="http://www.w3.org/2000/svg">
<path id="Vector" fill-rule="evenodd" clip-rule="evenodd" d="M199.666 68.9007L200.165 69.8935L200.603 70.8952L200.98 71.9044L201.296 72.9195L201.552 73.9392L201.749 74.9619L201.888 75.9865L201.971 77.0116L202 78.036L201.977 79.0586L201.903 80.0784L201.782 81.0946L201.616 82.1063L201.408 83.1129L201.159 84.1138L200.874 85.1085L200.555 86.0967L200.204 87.0781L199.825 88.0528L199.421 89.0207L198.996 89.9821L198.551 90.9371L198.089 91.886L197.614 92.8294L197.128 93.7677L196.632 94.7012L196.128 95.6303L195.617 96.5556L195.1 97.4773L194.578 98.3956L194.052 99.311L193.52 100.224L192.985 101.134L192.446 102.042L191.902 102.947L191.354 103.851L190.8 104.752L190.242 105.652L189.677 106.549L189.106 107.443L188.527 108.335L187.94 109.225L187.345 110.111L186.74 110.994L186.124 111.873L185.498 112.747L184.86 113.618L184.21 114.483L183.546 115.342L182.869 116.195L182.178 117.042L181.472 117.882L180.751 118.714L180.015 119.538L179.263 120.353L178.495 121.16L177.71 121.956L176.91 122.743L176.093 123.519L175.259 124.285L174.41 125.039L173.544 125.781L172.663 126.512L171.766 127.231L170.854 127.937L169.926 128.631L168.985 129.312L168.029 129.981L167.06 130.636L166.078 131.279L165.084 131.91L164.077 132.528L163.059 133.133L162.031 133.726L160.993 134.308L159.945 134.877L158.888 135.436L157.823 135.983L156.75 136.52L155.67 137.047L154.584 137.564L153.491 138.072L152.394 138.571L151.291 139.062L150.183 139.545L149.071 140.022L147.955 140.491L146.836 140.955L145.713 141.414L144.588 141.867L143.459 142.317L142.327 142.762L141.192 143.203L140.054 143.641L138.913 144.075L137.769 144.506L136.621 144.934L135.469 145.357L134.313 145.777L133.152 146.192L131.985 146.601L130.814 147.004L129.636 147.399L128.451 147.785L127.259 148.16L126.059 148.522L124.851 148.869L123.635 149.198L122.41 149.508L121.176 149.794L119.934 150.056L118.683 150.29L117.424 150.495L116.158 150.668L114.885 150.807L113.607 150.91L112.323 150.975L111.036 151L109.747 150.983L108.456 150.923L107.166 150.818L105.878 150.667L104.594 150.468L103.315 150.222L102.044 149.927L100.781 149.583L99.5301 149.191L98.2918 148.75L97.0682 148.26L95.8613 147.723L94.6729 147.14L93.5046 146.512L92.358 145.84L91.2347 145.127L90.1361 144.374L89.0635 143.583L88.0179 142.757L87.0002 141.899L86.0113 141.012L85.0517 140.098L84.1217 139.161L83.2215 138.204L82.3511 137.23L81.5102 136.243L80.6981 135.247L79.9144 134.244L79.1578 133.24L78.4274 132.236L77.7216 131.238L77.0389 130.248L76.3775 129.27L75.7353 128.307L75.1101 127.364L74.4996 126.442L73.9012 125.545L73.3121 124.677L72.7297 123.839L72.151 123.034L71.5729 122.265L70.9924 121.534L70.4063 120.841L69.8116 120.19L69.2051 119.581L68.5837 119.016L67.9443 118.494L67.2841 118.017L66.6001 117.584L65.8896 117.195L65.1502 116.85L64.3794 116.547L63.5752 116.286L62.7357 116.066L61.8592 115.884L60.9444 115.738L59.9902 115.627L58.996 115.547L57.9613 115.496L56.886 115.471L55.7705 115.469L54.6152 115.486L53.4211 115.52L52.1895 115.567L50.9217 115.622L49.6198 115.684L48.2858 115.748L46.922 115.811L45.5313 115.869L44.1165 115.918L42.6807 115.956L41.2272 115.98L39.7597 115.986L38.2817 115.971L36.797 115.932L35.3093 115.868L33.8225 115.776L32.3404 115.653L30.8666 115.498L29.4047 115.31L27.9583 115.087L26.5309 114.828L25.126 114.533L23.7472 114.2L22.3978 113.829L21.0813 113.42L19.8009 112.972L18.5599 112.486L17.3613 111.961L16.2078 111.398L15.1023 110.798L14.0472 110.16L13.0447 109.487L12.0967 108.779L11.2051 108.038L10.3711 107.264L9.59599 106.46L8.88049 105.626L8.22514 104.766L7.6301 103.88L7.09524 102.97L6.62007 102.04L6.2038 101.089L5.84533 100.122L5.54322 99.139L5.29575 98.1431L5.10091 97.1361L4.95642 96.1201L4.85973 95.097L4.80808 94.0689L4.79847 93.0374L4.82771 92.0044L4.89246 90.9715L4.98922 89.9401L5.11438 88.9118L5.26424 87.8877L5.43504 86.8689L5.62298 85.8564L5.82428 84.8509L6.03516 83.8532L6.25189 82.8637L6.47083 81.8827L6.68843 80.9105L6.90128 79.947L7.10612 78.9921L7.29984 78.0456L7.47954 77.1071L7.64253 76.176L7.78634 75.2517L7.90874 74.3336L8.00774 73.4207L8.08163 72.5121L8.12894 71.6069L8.1485 70.704L8.13939 69.8023L8.101 68.9007L8.03296 67.998L7.9352 67.0932L7.80792 66.185L7.65159 65.2723L7.46695 64.354L7.255 63.429L7.01702 62.4964L6.75451 61.5551L6.46926 60.6042L6.16331 59.6431L5.83894 58.6709L5.49872 57.6871L5.14547 56.6913L4.7822 55.6831L4.41209 54.6623L4.03843 53.6288L3.66454 52.5828L3.29371 51.5244L2.92919 50.454L2.57414 49.3719L2.23164 48.2786L1.90462 47.1748L1.59588 46.0611L1.30807 44.9383L1.04364 43.8073L0.804851 42.6688L0.593741 41.5239L0.412131 40.3734L0.261644 39.2183L0.143801 38.0596L0.0600413 36.8983L0.0117065 35.7355L0 34.5723L0.0259968 33.4098L0.0906625 32.2491L0.194868 31.0914L0.339402 29.9379L0.524976 28.7897L0.752232 27.6482L1.02175 26.5144L1.33402 25.3897L1.68951 24.2753L2.08856 23.1726L2.53148 22.0828L3.01848 21.0072L3.54969 19.9472L4.12517 18.9041L4.74486 17.8791L5.40863 16.8735L6.11624 15.8887L6.86735 14.9258L7.6615 13.986L8.49816 13.0705L9.37666 12.1804L10.2963 11.3168L11.2561 10.4807L12.2551 9.67296L13.2924 8.89457L14.3666 8.14632L15.4767 7.42892L16.6212 6.74305L17.7988 6.08928L19.0079 5.46814L20.2471 4.88004L21.5148 4.32533L22.8092 3.80428L24.1288 3.31708L25.4718 2.86385L26.8366 2.44464L28.2213 2.05941L29.6243 1.70809L31.0438 1.3905L32.478 1.10644L33.9254 0.855648L35.3841 0.637804L36.8526 0.452551L38.3292 0.299488L39.8124 0.17818L41.3005 0.0881622L42.7921 0.028941L44.2858 0L45.7801 0.00080318L47.2738 0.0307974L48.7654 0.0894151L50.2538 0.176076L51.7377 0.290189L53.216 0.431153L54.6876 0.598355L56.1514 0.791173L57.6065 1.00897L59.0517 1.25111L60.4863 1.51691L61.9092 1.8057L63.3196 2.11678L64.7168 2.44943L66.0998 2.80287L67.4679 3.17633L68.8205 3.56898L70.1567 3.97996L71.4759 4.40835L72.7775 4.85318L74.0608 5.3133L75.3251 5.78739L76.5698 6.27389L77.7942 6.77106L78.9978 7.27695L80.1799 7.78939L81.34 8.30599L82.4777 8.82414L83.5928 9.34101L84.6848 9.85353L85.7538 10.3584L86.7998 10.852L87.823 11.3309L88.8237 11.7912L89.8028 12.2297L90.761 12.6428L91.6996 13.0275L92.6197 13.3809L93.5229 13.7002L94.4108 13.983L95.2854 14.2271L96.1485 14.4304L97.0023 14.5912L97.849 14.708L98.6908 14.7798L99.5301 14.8055L100.369 14.7847L101.211 14.717L102.057 14.6025L102.911 14.4416L103.774 14.235L104.649 13.9837L105.539 13.6891L106.444 13.3529L107.368 12.9771L108.311 12.5641L109.277 12.1166L110.265 11.6375L111.278 11.13L112.316 10.5976L113.38 10.044L114.471 9.47318L115.588 8.8893L116.732 8.29664L117.902 7.69963L119.098 7.10282L120.318 6.51084L121.561 5.92834L122.825 5.36001L124.11 4.8105L125.412 4.2844L126.728 3.78622L128.058 3.32036L129.396 2.89103L130.741 2.5023L132.089 2.15798L133.436 1.86168L134.78 1.6167L136.115 1.42608L137.439 1.29252L138.747 1.21841L140.036 1.20576L141.301 1.25624L142.539 1.37111L143.747 1.55129L144.92 1.79726L146.055 2.10915L147.15 2.48666L148.2 2.92915L149.203 3.43556L150.157 4.00447L151.059 4.63414L151.907 5.32245L152.7 6.06698L153.437 6.86503L154.117 7.7136L154.738 8.60948L155.302 9.54923L155.808 10.5292L156.257 11.5457L156.65 12.5948L156.988 13.6725L157.274 14.7747L157.508 15.8975L157.694 17.0367L157.834 18.1881L157.932 19.3473L157.992 20.5103L158.017 21.6727L158.012 22.8305L157.982 23.9799L157.931 25.1171L157.864 26.2388L157.786 27.3419L157.702 28.4236L157.616 29.4816L157.533 30.514L157.458 31.5189L157.395 32.4949L157.348 33.4409L157.321 34.3558L157.32 35.239L157.347 36.09L157.407 36.9085L157.503 37.6947L157.639 38.4488L157.819 39.1715L158.044 39.8636L158.317 40.5261L158.642 41.1604L159.018 41.768L159.449 42.3505L159.934 42.9099L160.476 43.4481L161.073 43.9674L161.725 44.47L162.434 44.9582L163.196 45.4346L164.012 45.9015L164.879 46.3614L165.796 46.817L166.761 47.2707L167.77 47.7248L168.821 48.1819L169.911 48.6443L171.036 49.1142L172.193 49.5938L173.377 50.0851L174.586 50.59L175.814 51.1103L177.057 51.6475L178.312 52.2032L179.572 52.7786L180.835 53.3749L182.095 53.993L183.347 54.6337L184.588 55.2975L185.812 55.9849L187.016 56.6961L188.195 57.4311L189.345 58.1899L190.462 58.9721L191.543 59.7773L192.583 60.6049L193.579 61.4542L194.529 62.3243L195.429 63.2142L196.277 64.1227L197.07 65.0487L197.807 65.9909L198.487 66.9479L199.107 67.9183L199.666 68.9007Z" fill="url(#paint0_linear_5_41)"/>
<defs>
<linearGradient id="paint0_linear_5_41" x1="-15.8497" y1="78.1586" x2="180.388" y2="117.953" gradientUnits="userSpaceOnUse">
<stop stop-color="#723D80"/>
<stop offset="1" stop-color="#40A896"/>
</linearGradient>
</defs>
</svg>
